<svg width="33" height="32" viewBox="0 0 33 32" fill="none" xmlns="http://www.w3.org/2000/svg">
<path d="M16.5 31C24.7843 31 31.5 24.2843 31.5 16C31.5 7.71572 24.7843 1 16.5 1C8.21572 1 1.5 7.71572 1.5 16C1.5 24.2843 8.21572 31 16.5 31Z" stroke="white" stroke-width="2" stroke-linecap="round" stroke-linejoin="round"/>
<path d="M1.5 16H31.5" stroke="white" stroke-width="2" stroke-linecap="round" stroke-linejoin="round"/>
<path d="M16.5001 31C19.8138 31 22.5001 24.2843 22.5001 16C22.5001 7.71572 19.8138 1 16.5001 1C13.1863 1 10.5001 7.71572 10.5001 16C10.5001 24.2843 13.1863 31 16.5001 31Z" stroke="white" stroke-width="2" stroke-linecap="round" stroke-linejoin="round"/>
<path d="M5.89343 5.60663C8.6079 8.3211 12.3579 10.0001 16.5 10.0001C20.6422 10.0001 24.3922 8.3211 27.1067 5.60663" stroke="white" stroke-width="2" stroke-linecap="round" stroke-linejoin="round"/>
<path d="M27.1067 26.3934C24.3922 23.6789 20.6422 22 16.5 22C12.3579 22 8.6079 23.6789 5.89343 26.3934" stroke="white" stroke-width="2" stroke-linecap="round" stroke-linejoin="round"/>
</svg>
